<svg width="40" height="40" viewBox="0 0 40 40" fill="none" xmlns="http://www.w3.org/2000/svg">
<path id="Shape" fill-rule="evenodd" clip-rule="evenodd" d="M1.68746 11.9799C4.87663 4.71391 12.0593 0.0150743 20 0C27.9407 0.0150743 35.1234 4.71391 38.3125 11.9799C41.5017 19.2459 40.0956 27.7081 34.7277 33.5547C30.9342 37.6632 25.5945 40 20 40C14.4055 40 9.06576 37.6632 5.27232 33.5547C-0.0956349 27.7081 -1.50171 19.2459 1.68746 11.9799ZM8.87909 31.5326C11.8625 34.4161 15.8491 36.0309 20 36.0372C24.1509 36.0309 28.1375 34.4161 31.1209 31.5326C29.2683 27.0265 24.8755 24.0845 20 24.0845C15.1244 24.0845 10.7316 27.0265 8.87909 31.5326ZM15.9924 16.0166C15.9924 13.8051 17.7867 12.0124 20 12.0124C22.2133 12.0124 24.0075 13.8051 24.0075 16.0166C24.0075 18.228 22.2133 20.0207 20 20.0207C17.7867 20.0207 15.9924 18.228 15.9924 16.0166ZM26.0113 21.262C29.3003 22.5894 32.0557 24.9693 33.846 28.029C35.2728 25.6007 36.0267 22.8365 36.0301 20.0207C36.0301 11.175 28.8532 4.00414 20 4.00414C11.1468 4.00414 3.96985 11.175 3.96985 20.0207C3.9733 22.8365 4.72716 25.6007 6.15395 28.029C7.94426 24.9693 10.6997 22.5894 13.9887 21.262C11.1469 18.0424 11.3513 13.1566 14.4521 10.1853C17.5529 7.21388 22.4471 7.21388 25.5479 10.1853C28.6487 13.1566 28.8531 18.0424 26.0113 21.262Z" fill="#045477"/>
</svg>
