<svg width="40" height="40" viewBox="0 0 40 40" fill="none" xmlns="http://www.w3.org/2000/svg">
<path id="Shape" fill-rule="evenodd" clip-rule="evenodd" d="M9.98466 27.957H37.9417C39.0446 27.957 39.9386 28.8511 39.9386 29.954C39.9386 31.0569 39.0446 31.9509 37.9417 31.9509H37.5823C38.4848 34.4377 37.6494 37.2221 35.5269 38.8012C33.4044 40.3804 30.4974 40.3804 28.3749 38.8012C26.2524 37.2221 25.417 34.4377 26.3196 31.9509H21.6068C22.5094 34.4377 21.674 37.2221 19.5515 38.8012C17.429 40.3804 14.5219 40.3804 12.3994 38.8012C10.2769 37.2221 9.44152 34.4377 10.3441 31.9509H9.98466C6.67603 32.0998 3.87317 29.5383 3.72428 26.2297C3.57539 22.9211 6.13686 20.1182 9.44549 19.9693L5.99079 6.47006L5.87098 5.51153C5.64569 4.59857 4.814 3.96648 3.87405 3.99386H1.99693C0.894057 3.99386 0 3.09981 0 1.99693C0 0.894057 0.894057 0 1.99693 0H3.87405C6.40667 0.00711779 8.66119 1.60607 9.50539 3.99386H37.9417C38.5772 3.97166 39.1853 4.25346 39.5792 4.7527C39.9575 5.23904 40.0902 5.87281 39.9386 6.47006L36.6437 19.4301C35.9752 22.0948 33.5799 23.9633 30.8326 23.9632H9.98466C8.88178 23.9632 7.98773 24.8572 7.98773 25.9601C7.98773 27.063 8.88178 27.957 9.98466 27.957ZM32.7697 18.4516L35.3857 7.98773H10.5439L13.5393 19.9693H30.7728C31.7127 19.9967 32.5444 19.3646 32.7697 18.4516ZM15.9755 35.9448C14.8726 35.9448 13.9785 35.0507 13.9785 33.9478C13.9785 32.845 14.8726 31.9509 15.9755 31.9509C17.0783 31.9509 17.9724 32.845 17.9724 33.9478C17.9724 35.0507 17.0783 35.9448 15.9755 35.9448ZM29.954 33.9478C29.954 35.0507 30.848 35.9448 31.9509 35.9448C33.0538 35.9448 33.9478 35.0507 33.9478 33.9478C33.9478 32.845 33.0538 31.9509 31.9509 31.9509C30.848 31.9509 29.954 32.845 29.954 33.9478Z" fill="#045477"/>
</svg>
